<?xml version="1.0" standalone="no"?>
<!DOCTYPE svg PUBLIC "-//W3C//DTD SVG 20010904//EN"
 "http://www.w3.org/TR/2001/REC-SVG-20010904/DTD/svg10.dtd">
<svg version="1.0" xmlns="http://www.w3.org/2000/svg"
 width="1170.000000pt" height="1119.000000pt" viewBox="0 0 1170.000000 1119.000000"
 preserveAspectRatio="xMidYMid meet">

<g transform="translate(0.000000,1119.000000) scale(0.100000,-0.100000)"
fill="#000000" stroke="none">
<path d="M0 8708 l0 -2483 122 7 c68 3 224 7 348 8 258 2 395 11 409 25 19 19
15 1727 -5 1875 -12 95 -35 193 -53 228 -69 136 -210 194 -498 207 -172 7
-203 17 -203 60 0 49 12 50 460 45 450 -5 797 -5 2050 0 583 3 839 0 900 -8
47 -6 151 -18 232 -26 81 -8 151 -17 157 -20 5 -3 47 -10 93 -15 276 -31 758
-180 968 -300 8 -5 35 -18 60 -30 49 -24 119 -64 135 -78 6 -5 17 -12 26 -15
15 -6 63 -40 186 -133 59 -45 152 -124 188 -161 72 -73 186 -203 216 -244 18
-25 51 -67 74 -95 23 -27 61 -84 85 -125 24 -41 49 -82 56 -90 20 -24 134
-256 134 -272 0 -9 6 -21 14 -27 8 -7 18 -27 22 -44 3 -18 10 -36 14 -42 5 -5
26 -64 48 -130 38 -113 73 -259 108 -455 9 -47 20 -90 26 -97 15 -18 778 -19
796 -1 16 16 17 1598 2 1799 -21 274 -63 360 -209 429 -85 40 -191 59 -351 64
-83 2 -146 8 -163 16 -32 15 -44 49 -28 79 21 39 76 44 366 35 149 -5 729 -9
1290 -9 1014 0 1021 0 1190 -23 94 -13 185 -30 203 -38 18 -8 48 -14 67 -14
19 0 52 -6 72 -14 21 -8 79 -27 128 -42 50 -16 97 -33 105 -40 8 -6 26 -15 39
-19 14 -4 39 -16 55 -26 17 -10 52 -29 78 -43 174 -92 334 -255 441 -450 15
-28 31 -52 37 -54 5 -2 12 -20 16 -40 4 -20 10 -41 14 -47 11 -14 50 -122 60
-165 65 -287 67 -419 11 -720 -9 -45 -44 -161 -77 -255 -24 -68 -116 -245
-162 -312 -72 -105 -75 -127 -19 -135 18 -3 136 -6 262 -7 127 -1 290 -6 364
-12 74 -6 150 -9 170 -8 20 1 63 1 95 0 47 -1 57 -4 48 -13 -18 -18 -485 -25
-2277 -35 -2641 -14 -7625 -6 -8622 13 l-373 7 0 -3096 0 -3097 5850 0 5850 0
0 5595 0 5595 -5850 0 -5850 0 0 -2482z m8650 -3453 c946 -5 1170 -10 1170
-24 0 -4 -5 -12 -12 -19 -9 -9 -8 -13 5 -18 27 -10 52 0 52 21 0 15 8 21 34
23 33 3 34 3 28 -27 -4 -17 -2 -31 2 -31 5 0 12 -13 16 -30 4 -16 11 -30 16
-30 5 0 9 -7 9 -15 0 -8 9 -15 20 -15 14 0 20 -7 20 -21 0 -17 -5 -20 -32 -17
-22 2 -32 8 -30 17 2 9 -3 11 -13 7 -13 -5 -15 0 -11 24 4 26 1 30 -19 30 -13
0 -27 5 -30 10 -9 15 -20 12 -46 -9 -23 -19 -24 -19 -5 -40 25 -27 50 -27 63
2 10 21 11 20 18 -15 4 -20 4 -41 1 -46 -3 -6 10 -20 30 -31 30 -18 34 -24 24
-36 -7 -8 -19 -15 -26 -15 -8 0 -14 -4 -14 -10 0 -5 -18 -10 -40 -10 -33 0
-40 -3 -40 -20 0 -16 8 -19 63 -22 53 -3 62 -6 62 -22 0 -10 -9 -24 -20 -30
-11 -6 -22 -14 -25 -17 -3 -3 -13 -8 -23 -12 -20 -8 -14 -27 9 -27 8 0 14 -4
14 -10 0 -5 9 -10 21 -10 27 0 22 -32 -9 -45 -19 -8 -22 -17 -22 -66 0 -31 -3
-84 -6 -118 -6 -49 -10 -61 -25 -61 -16 0 -16 -2 -3 -30 9 -16 13 -38 10 -47
-4 -13 3 -23 24 -35 29 -16 30 -20 30 -84 0 -53 -3 -65 -14 -61 -8 3 -31 9
-50 13 -37 6 -42 0 -37 -43 1 -6 -3 -14 -9 -18 -5 -3 -10 -20 -10 -37 l0 -31
-25 34 c-14 19 -28 42 -31 52 -4 9 -10 17 -15 17 -5 0 -9 7 -9 16 0 10 -5 14
-16 10 -8 -3 -13 -2 -10 3 3 5 -5 16 -19 25 -14 9 -25 22 -25 30 0 7 -18 31
-41 54 -22 23 -38 46 -35 51 3 5 -1 11 -9 15 -8 3 -15 12 -15 20 0 7 -11 21
-25 30 -14 9 -25 20 -25 25 0 10 -57 96 -99 150 -15 20 -39 55 -52 79 -13 23
-31 44 -40 47 -8 3 -23 23 -33 45 -10 22 -21 40 -26 40 -4 0 -30 33 -56 72
-55 82 -63 92 -85 116 -8 9 -37 45 -63 79 -25 34 -54 67 -64 72 -23 13 -893 2
-909 -12 -10 -7 -13 -119 -13 -496 0 -1009 28 -1357 118 -1481 88 -121 156
-143 516 -170 141 -10 163 -19 152 -63 -12 -49 -46 -51 -639 -41 -594 10 -625
10 -1032 -6 -591 -22 -608 -22 -653 23 -22 23 -23 27 -11 53 16 33 41 42 124
43 105 2 270 28 312 50 174 88 213 364 213 1503 0 451 -3 579 -12 585 -19 11
-840 3 -855 -9 -6 -5 -19 -39 -27 -76 -20 -88 -72 -258 -91 -295 -8 -17 -15
-35 -15 -41 0 -6 -8 -27 -19 -46 -10 -19 -26 -60 -36 -90 -64 -196 -310 -587
-490 -777 -36 -37 -65 -71 -65 -74 0 -11 -262 -237 -340 -294 -69 -50 -180
-121 -235 -150 -33 -17 -85 -45 -115 -62 -30 -17 -100 -50 -155 -73 -55 -23
-113 -47 -130 -55 -120 -53 -187 -75 -430 -140 -156 -42 -476 -100 -640 -116
-174 -17 -831 -17 -862 0 -32 16 -29 25 14 40 37 14 37 14 13 23 -34 13 -70
12 -105 -1 -20 -9 -25 -15 -17 -20 10 -6 10 -10 -2 -20 -18 -15 -60 -5 -49 12
10 16 10 41 -1 48 -5 4 -6 12 -2 18 8 13 125 3 144 -12 10 -8 16 -7 21 2 5 7
17 12 27 11 30 -4 44 -1 44 9 0 5 -33 9 -72 10 -122 1 -124 2 -119 47 2 14
-31 24 -76 24 -28 0 -33 3 -33 25 0 16 -6 25 -15 25 -17 0 -21 45 -5 55 14 9
50 -18 50 -37 0 -10 4 -18 10 -18 5 0 10 3 9 8 -3 18 14 52 26 52 23 0 24 -38
2 -53 -21 -14 -20 -14 17 -32 32 -15 39 -16 47 -4 5 8 9 20 9 27 0 7 14 12 34
12 19 0 36 6 39 14 5 13 61 17 432 31 311 12 613 61 835 136 176 60 190 65
260 98 338 161 609 388 803 677 15 22 27 44 27 49 0 5 8 18 18 29 18 20 112
231 145 326 24 66 74 249 82 295 4 22 15 85 25 140 23 122 32 226 21 244 -9
14 -118 16 -1361 27 -1148 10 -1435 17 -1456 39 -11 11 15 14 159 19 503 20
3538 25 5987 11z m1497 -31 c14 -14 13 -15 -17 -12 -19 2 -35 9 -38 16 -6 18
36 15 55 -4z m-127 -3 c0 -6 -4 -13 -10 -16 -5 -3 -10 1 -10 9 0 9 5 16 10 16
6 0 10 -4 10 -9z m34 -196 c13 -14 13 -18 -2 -45 -23 -41 -30 -38 -29 15 2 48
7 54 31 30z m-42 -92 c8 -30 -1 -44 -22 -33 -12 6 -16 17 -13 30 7 25 29 26
35 3z m102 1 c8 -21 8 -24 -3 -24 -5 0 -11 9 -14 20 -6 24 8 27 17 4z m-41
-54 c-3 -11 -9 -20 -14 -20 -14 0 -11 28 4 33 6 3 13 6 14 6 0 1 -1 -8 -4 -19z
m-19 -58 c14 -22 -39 -48 -64 -32 -13 9 -12 12 4 25 21 16 52 20 60 7z m16
-112 c-8 -5 -17 -7 -19 -4 -3 3 1 9 9 14 8 5 17 7 19 4 3 -3 -1 -9 -9 -14z
m-130 -87 c0 -5 -5 -15 -10 -23 -8 -12 -10 -11 -10 8 0 12 5 22 10 22 6 0 10
-3 10 -7z m121 -318 c-2 -70 -7 -105 -17 -116 -21 -24 -17 -39 11 -39 25 0 25
-1 25 -85 0 -50 -4 -85 -10 -85 -23 0 -8 -42 20 -58 35 -20 37 -28 11 -41 -22
-12 -31 -5 -31 26 0 20 -5 23 -35 23 -35 0 -43 8 -26 26 5 5 12 51 16 101 l6
93 -40 6 c-23 4 -41 10 -41 14 0 10 26 20 51 20 12 0 19 7 19 20 0 11 5 20 10
20 6 0 10 37 10 91 0 63 3 90 11 87 8 -3 11 -36 10 -103z m-191 -140 c0 -8 8
-15 18 -15 23 0 72 -63 72 -94 0 -37 -29 -34 -36 4 -5 23 -12 30 -30 30 -12 0
-29 -9 -37 -20 -13 -18 -15 -19 -21 -5 -10 26 -7 85 4 85 6 0 10 7 10 15 0 8
5 15 10 15 6 0 10 -7 10 -15z m126 -152 c-10 -10 -19 5 -10 18 6 11 8 11 12 0
2 -7 1 -15 -2 -18z m-82 -10 c-8 -35 -10 -37 -23 -28 -6 3 -11 17 -11 31 0 17
5 24 20 24 17 0 19 -4 14 -27z m93 -136 c-6 -20 -27 -19 -27 2 0 14 5 19 15
14 9 -3 14 -10 12 -16z m51 -30 c2 -12 -3 -17 -17 -17 -15 0 -21 6 -21 21 0
25 33 22 38 -4z m29 -79 c-3 -8 -6 -5 -6 6 -1 11 2 17 5 13 3 -3 4 -12 1 -19z
m-8090 -404 c-3 -3 -12 -4 -19 -1 -8 3 -5 6 6 6 11 1 17 -2 13 -5z m9293 -4
c0 -5 -5 -10 -11 -10 -5 0 -7 5 -4 10 3 6 8 10 11 10 2 0 4 -4 4 -10z m-730
-10 c0 -5 -2 -10 -4 -10 -3 0 -8 5 -11 10 -3 6 -1 10 4 10 6 0 11 -4 11 -10z
m-9733 -122 c-3 -8 -6 -5 -6 6 -1 11 2 17 5 13 3 -3 4 -12 1 -19z m103 -93 c0
-8 -4 -15 -10 -15 -5 0 -10 7 -10 15 0 8 5 15 10 15 6 0 10 -7 10 -15z m10015
-105 c4 -6 -5 -10 -19 -10 -14 0 -26 5 -26 10 0 6 9 10 19 10 11 0 23 -4 26
-10z m-10272 -67 c-7 -2 -19 -2 -25 0 -7 3 -2 5 12 5 14 0 19 -2 13 -5z"/>
<path d="M9698 5149 c-26 -15 -22 -39 6 -39 22 0 36 16 36 41 0 12 -20 11 -42
-2z"/>
<path d="M9709 5039 c-10 -6 -7 -9 14 -9 29 0 35 5 14 13 -8 3 -20 1 -28 -4z"/>
<path d="M9760 5014 c0 -37 14 -42 34 -12 7 11 5 20 -7 32 -23 23 -27 20 -27
-20z"/>
<path d="M9815 4960 c-4 -6 5 -10 20 -10 15 0 24 4 20 10 -3 6 -12 10 -20 10
-8 0 -17 -4 -20 -10z"/>
<path d="M9760 4860 c0 -13 11 -13 30 0 12 8 11 10 -7 10 -13 0 -23 -4 -23
-10z"/>
<path d="M9750 4760 c-7 -4 -10 -15 -7 -23 7 -18 57 -11 57 8 0 16 -33 25 -50
15z"/>
<path d="M9635 4720 c-3 -5 1 -10 9 -10 9 0 16 5 16 10 0 6 -4 10 -9 10 -6 0
-13 -4 -16 -10z"/>
<path d="M9692 4698 c-17 -17 -15 -48 2 -48 19 0 46 27 46 46 0 17 -31 19 -48
2z"/>
<path d="M9680 4550 c0 -11 4 -20 9 -20 13 0 32 26 24 33 -13 14 -33 6 -33
-13z"/>
<path d="M9760 4470 c0 -27 34 -44 60 -30 11 6 20 20 20 30 0 17 -7 20 -40 20
-33 0 -40 -3 -40 -20z"/>
<path d="M9698 4465 c13 -9 26 -14 29 -11 8 8 3 12 -27 21 l-25 7 23 -17z"/>
<path d="M9760 4324 c0 -8 5 -12 10 -9 6 4 8 11 5 16 -9 14 -15 11 -15 -7z"/>
<path d="M9810 4298 c0 -8 7 -23 15 -34 15 -18 15 -18 13 10 -3 29 -28 50 -28
24z"/>
<path d="M2688 3083 c-26 -7 -22 -33 5 -34 61 -3 81 6 53 27 -20 14 -28 15
-58 7z"/>
<path d="M2300 8352 c-91 -4 -322 -33 -339 -42 -9 -5 -32 -16 -51 -25 -63 -27
-71 -55 -81 -259 -5 -99 -8 -530 -8 -957 0 -698 2 -778 16 -799 l16 -23 1381
6 c760 4 1525 7 1702 7 241 0 324 3 336 13 15 11 15 19 3 82 -21 108 -82 311
-121 400 -19 44 -47 107 -61 140 -62 146 -223 405 -310 497 -29 31 -53 61 -53
66 0 26 -318 304 -420 367 -25 15 -54 35 -65 45 -11 10 -51 35 -90 55 -38 21
-77 43 -85 50 -8 7 -55 32 -105 55 -49 24 -96 48 -103 53 -7 5 -54 25 -105 43
-50 18 -123 45 -162 59 -38 14 -101 32 -140 41 -38 8 -90 22 -115 29 -86 27
-298 59 -570 86 -110 11 -355 17 -470 11z"/>
<path d="M8325 8343 c-68 -4 -165 -23 -196 -39 -50 -25 -50 -25 -47 -1061 2
-773 6 -965 16 -975 10 -10 163 -13 775 -13 l762 0 19 40 c26 54 74 278 86
395 20 199 10 517 -19 615 -5 17 -19 75 -31 130 -24 109 -88 280 -110 295 -4
3 -19 28 -33 56 -33 66 -94 143 -181 229 -70 69 -207 175 -227 175 -5 0 -18 8
-29 18 -16 15 -141 65 -252 101 -106 34 -317 48 -533 34z"/>
</g>
</svg>
